<svg width="53" height="27" viewBox="0 0 53 27" fill="none" xmlns="http://www.w3.org/2000/svg">
<path d="M38.0646 20.7477C45.3625 22.8417 49.8629 19.989 51.2009 18.1074C47.1871 27.9406 36.8787 27.121 32.8649 24.1164C28.851 21.1119 28.7599 20.11 29.216 18.8353C29.5809 17.8156 31.4335 16.5872 32.7737 17.9249C35.0543 20.2011 36.0577 20.0193 38.0646 20.7477Z" fill="#20CEFA" stroke="#20CEFA" stroke-width="0.472222"/>
<path d="M14.3464 6.63497C10.515 6.63497 2.91303 8.39522 1.57508 10.2769C4.3118 -0.648788 16.8095 0.170635 20.8233 3.17519C24.8372 6.17974 24.381 7.19463 23.9249 8.46929C23.56 9.48902 21.3426 10.7951 20.0023 9.45743C16.627 6.90812 16.1709 6.72602 14.3464 6.63497Z" fill="#20CEFA" stroke="#20CEFA" stroke-width="0.472222"/>
<path d="M7.32216 15.3741C6.59237 7.87183 11.5185 7.54554 14.3465 6.72609C2.57868 3.35724 -0.431883 10.6395 1.57508 17.4681C4.40302 24.2056 10.4238 27.1191 15.1674 26.3907C18.9623 25.808 22.7694 22.3239 24.1986 20.6547L16.9919 19.3801C10.7157 21.7837 7.93032 17.7109 7.32216 15.3741Z" fill="#0667AA" stroke="#0667AA" stroke-width="0.472222"/>
<path d="M24.5635 20.3634C21.8268 22.8417 12.7957 21.203 10.9712 19.5641C15.131 20.495 17.4785 19.2168 18.2691 18.2893L28.0301 7.61679C30.4931 5.15881 39.0681 5.36079 41.3487 7.54593C38.4296 6.99958 36.5139 7.94213 35.5104 8.80042L24.5635 20.3634Z" fill="#034676" stroke="#034676" stroke-width="0.472222"/>
<path d="M41.2575 7.45477C37.0612 5.54276 30.5843 6.63538 27.9388 7.63684C33.8683 -0.648483 42.4434 -0.648368 48.1905 4.72341C52.7882 9.02083 52.478 15.7401 51.1096 18.3805C48.6466 23.1331 40.6493 21.7491 38.1559 20.6566C40.8926 20.2923 42.1309 20.0265 43.6293 18.7446C44.9064 17.6521 47.3695 11.1877 41.2575 7.45477Z" fill="#0667AA" stroke="#0366AA" stroke-width="0.472222"/>
</svg>
