<svg width="24" height="24" viewBox="0 0 24 24" fill="none" xmlns="http://www.w3.org/2000/svg">
<path d="M9.5 6.5C9.5 8.981 11.519 11 14 11C16.481 11 18.5 8.981 18.5 6.5C18.5 4.019 16.481 2 14 2C11.519 2 9.5 4.019 9.5 6.5ZM22 21H23V20C23 16.141 19.859 13 16 13H12C8.14 13 5 16.141 5 20V21H22Z" fill="black"/>
<path d="M3.77994 8.93939L6.04364 6.67627L7.55989 8.18502L5.28551 10.4375L7.55989 12.69L6.04364 14.1988L3.77994 11.9356L1.51625 14.1988L0 12.69L2.27437 10.4375L0 8.18502L1.51625 6.67627L3.77994 8.93939Z" fill="black"/>
</svg>
