<svg width="18" height="20" viewBox="0 0 18 20" fill="none" xmlns="http://www.w3.org/2000/svg">
<path d="M9.78103 0.374805C9.40003 -0.100195 8.60003 -0.100195 8.21903 0.374805L0.219031 10.3748C0.101669 10.522 0.0282014 10.6993 0.00706273 10.8864C-0.014076 11.0735 0.0179715 11.2627 0.0995253 11.4324C0.181079 11.6021 0.308833 11.7454 0.468118 11.8457C0.627404 11.9461 0.811764 11.9995 1.00003 11.9998H5.00003V18.9998C5.00003 19.265 5.10539 19.5194 5.29292 19.7069C5.48046 19.8944 5.73481 19.9998 6.00003 19.9998H12C12.2652 19.9998 12.5196 19.8944 12.7071 19.7069C12.8947 19.5194 13 19.265 13 18.9998V11.9998H17C17.1883 11.9995 17.3727 11.9461 17.5319 11.8457C17.6912 11.7454 17.819 11.6021 17.9005 11.4324C17.9821 11.2627 18.0141 11.0735 17.993 10.8864C17.9719 10.6993 17.8984 10.522 17.781 10.3748L9.78103 0.374805ZM12 9.9998H11V17.9998H7.00003V9.9998H3.08103L9.00003 2.6008L14.919 9.9998H12Z" fill="black"/>
</svg>
